<svg width="60" height="30" viewBox="0 0 60 30" fill="none" xmlns="http://www.w3.org/2000/svg">
<g clip-path="url(#clip0_9_25)">
<path d="M0.282858 0.299989V25.4336C0.282858 25.4336 1.67087 28.0448 3.22372 28.9247C5.277 30.0882 6.30557 30.0382 6.21279 29.995V10.1522L21.6204 29.7668C23.85 29.5066 24.8809 27.8438 24.9609 25.0684V0.710521C23.2334 1.04149 21.5102 1.40293 20.0801 3.9036V19.1847L6.669 2.62625C4.92682 0.939646 2.682 0.437989 0.282858 0.299989Z" fill="#5648B2"/>
<path d="M29.3186 29.76V0.593567H35.6089L44.9537 13.0716L54.1744 0.693637H60.8895L45.1039 21.6911L34.6303 8.66165V26.7525C33.3349 29.2202 31.4091 29.7441 29.3186 29.76Z" fill="white"/>
</g>
<defs>
<clipPath id="clip0_9_25">
<rect width="60" height="30" fill="white"/>
</clipPath>
</defs>
</svg>
